<svg width="512" height="512" viewBox="0 0 512 512" fill="none" xmlns="http://www.w3.org/2000/svg">
  <defs>
    <linearGradient id="bg" x1="0%" y1="0%" x2="100%" y2="100%">
      <stop offset="0%" style="stop-color:#6366f1;stop-opacity:1" />
      <stop offset="100%" style="stop-color:#8b5cf6;stop-opacity:1" />
    </linearGradient>
  </defs>
  
  <!-- Background circle -->
  <circle cx="256" cy="256" r="240" fill="url(#bg)" stroke="#ffffff" stroke-width="16"/>
  
  <!-- Vault/Shield icon -->
  <path d="M256 120c-44.18 0-80 35.82-80 80v48c0 44.18 35.82 80 80 80s80-35.82 80-80v-48c0-44.18-35.82-80-80-80z" fill="#ffffff" opacity="0.9"/>
  
  <!-- Lock body -->
  <rect x="216" y="200" width="80" height="60" rx="8" fill="#ffffff" opacity="0.7"/>
  
  <!-- Lock hole -->
  <circle cx="256" cy="230" r="6" fill="#6366f1"/>
  
  <!-- Keyhole -->
  <rect x="252" y="240" width="8" height="20" rx="4" fill="#6366f1"/>
  
  <!-- Information dots -->
  <circle cx="180" cy="180" r="12" fill="#ffffff" opacity="0.8"/>
  <circle cx="332" cy="180" r="12" fill="#ffffff" opacity="0.8"/>
  <circle cx="180" cy="332" r="12" fill="#ffffff" opacity="0.8"/>
  <circle cx="332" cy="332" r="12" fill="#ffffff" opacity="0.8"/>
</svg>
